<svg width="12" height="250" viewBox="0 0 12 250" fill="none" xmlns="http://www.w3.org/2000/svg">
<path d="M7.30988 35.0875H4.38593V206.14H7.30988V35.0875Z" fill="#A08A8A"/>
<path d="M7.30988 5.45364C6.87967 5.70312 6.38123 5.84791 5.8479 5.84791C5.31457 5.84791 4.81613 5.7026 4.38593 5.45364V10.9651H7.30988V5.45364Z" fill="#A08A8A"/>
<path d="M7.30988 13.8891H4.38593V32.1641H7.30988V13.8891Z" fill="#A08A8A"/>
<path d="M3.96562 206.141C3.3901 206.141 2.92395 206.607 2.92395 207.182V244.152H8.77187V207.182C8.77187 206.607 8.30572 206.141 7.7302 206.141H7.30989H4.38593H3.96562Z" fill="#826E77"/>
<path d="M2.92396 244.152H0V250H2.92396H4.38594H7.3099H8.77187H11.6958V244.152H8.77187H2.92396Z" fill="#695A69"/>
<path d="M7.30989 5.45365C8.18281 4.94792 8.77187 4.00573 8.77187 2.92396C8.77187 1.30885 7.46301 0 5.84791 0C4.2328 0 2.92395 1.30885 2.92395 2.92396C2.92395 4.00573 3.51302 4.94792 4.38593 5.45365C4.81614 5.70312 5.31457 5.84792 5.84791 5.84792C6.38124 5.84792 6.87968 5.7026 7.30989 5.45365Z" fill="#E17277"/>
<path d="M7.30989 32.1635H4.38593H3.96562C3.3901 32.1635 2.92395 32.6302 2.92395 33.2052V34.0458C2.92395 34.6208 3.3901 35.0875 3.96562 35.0875H4.38593H7.30989H10.2338V32.1635H7.30989Z" fill="#695A69"/>
<path d="M10.2338 13.8891V10.9651H7.30989H4.38593H3.96562C3.3901 10.9651 2.92395 11.4313 2.92395 12.0068V12.8474C2.92395 13.4229 3.3901 13.8891 3.96562 13.8891H4.38593H7.30989H10.2338Z" fill="#695A69"/>
</svg>
